<mxfile host="Electron" agent="Mozilla/5.0 (Macintosh; Intel Mac OS X 10_15_7) AppleWebKit/537.36 (KHTML, like Gecko) draw.io/24.7.5 Chrome/126.0.6478.183 Electron/31.3.0 Safari/537.36" version="24.7.5">
  <diagram name="페이지-1" id="fIbGgaHbKg5xb2GU_-fw">
    <mxGraphModel dx="1114" dy="894" grid="1" gridSize="10" guides="1" tooltips="1" connect="1" arrows="1" fold="1" page="1" pageScale="1" pageWidth="827" pageHeight="1169" math="0" shadow="0">
      <root>
        <mxCell id="0" />
        <mxCell id="1" parent="0" />
        <mxCell id="xetProM2B6-n4dE7nnOp-1" value="adapter.in.web" style="shape=folder;fontStyle=1;spacingTop=10;tabWidth=40;tabHeight=14;tabPosition=left;html=1;whiteSpace=wrap;verticalAlign=top;horizontal=1;fontSize=14;fillColor=#d5e8d4;strokeColor=#82b366;" vertex="1" parent="1">
          <mxGeometry x="90" y="60" width="210" height="250" as="geometry" />
        </mxCell>
        <mxCell id="xetProM2B6-n4dE7nnOp-6" value="SendMoney&lt;div&gt;Controller&lt;/div&gt;" style="rounded=0;whiteSpace=wrap;html=1;" vertex="1" parent="1">
          <mxGeometry x="140" y="190" width="120" height="50" as="geometry" />
        </mxCell>
        <mxCell id="xetProM2B6-n4dE7nnOp-7" value="application.service" style="shape=folder;fontStyle=1;spacingTop=10;tabWidth=40;tabHeight=14;tabPosition=left;html=1;whiteSpace=wrap;verticalAlign=top;horizontal=1;fontSize=14;fillColor=#dae8fc;strokeColor=#6c8ebf;" vertex="1" parent="1">
          <mxGeometry x="380" y="60" width="170" height="250" as="geometry" />
        </mxCell>
        <mxCell id="xetProM2B6-n4dE7nnOp-9" value="SendMoney&lt;div&gt;Service&lt;/div&gt;" style="rounded=0;whiteSpace=wrap;html=1;" vertex="1" parent="1">
          <mxGeometry x="414" y="140" width="110" height="50" as="geometry" />
        </mxCell>
        <mxCell id="xetProM2B6-n4dE7nnOp-11" value="SendMoney&lt;div&gt;Command&lt;/div&gt;" style="rounded=0;whiteSpace=wrap;html=1;" vertex="1" parent="1">
          <mxGeometry x="414" y="240" width="110" height="50" as="geometry" />
        </mxCell>
        <mxCell id="xetProM2B6-n4dE7nnOp-12" style="edgeStyle=orthogonalEdgeStyle;rounded=0;orthogonalLoop=1;jettySize=auto;html=1;entryX=0;entryY=0.5;entryDx=0;entryDy=0;endArrow=block;endFill=1;" edge="1" parent="1" source="xetProM2B6-n4dE7nnOp-6" target="xetProM2B6-n4dE7nnOp-9">
          <mxGeometry relative="1" as="geometry">
            <Array as="points">
              <mxPoint x="337" y="210" />
              <mxPoint x="337" y="165" />
            </Array>
          </mxGeometry>
        </mxCell>
        <mxCell id="xetProM2B6-n4dE7nnOp-14" style="edgeStyle=orthogonalEdgeStyle;rounded=0;orthogonalLoop=1;jettySize=auto;html=1;endArrow=block;endFill=1;" edge="1" parent="1" source="xetProM2B6-n4dE7nnOp-6" target="xetProM2B6-n4dE7nnOp-11">
          <mxGeometry relative="1" as="geometry">
            <Array as="points">
              <mxPoint x="337" y="220" />
              <mxPoint x="337" y="265" />
            </Array>
          </mxGeometry>
        </mxCell>
      </root>
    </mxGraphModel>
  </diagram>
</mxfile>
